<svg width="109" height="24" viewBox="0 0 109 24" fill="none" xmlns="http://www.w3.org/2000/svg">
<path d="M13.7846 22.8004C12.9935 23.5681 11.9205 23.9993 10.8017 23.9993C9.68294 23.9993 8.60998 23.5681 7.81881 22.8004L1.23458 16.4112C0.444091 15.644 0 14.6035 0 13.5186C0 12.4336 0.444091 11.3931 1.23458 10.6259C2.02508 9.85872 3.09721 9.42773 4.21514 9.42773C5.33307 9.42773 6.4052 9.85872 7.19569 10.6259L9.37179 12.7332L9.33867 12.7654C8.58065 13.4993 8.13888 14.4857 8.10307 15.5243C8.06726 16.5629 8.44006 17.5758 9.14582 18.3573C9.85158 19.1388 10.8374 19.6303 11.903 19.732C12.9686 19.8338 14.0342 19.5381 14.8833 18.905C15.0644 19.591 15.0583 20.3109 14.8657 20.9939C14.6731 21.6769 14.3005 22.2995 13.7846 22.8004Z" fill="#FFA500"/>
<path d="M14.8888 18.9062C14.0397 19.5392 12.9741 19.8349 11.9085 19.7332C10.8429 19.6315 9.85707 19.14 9.15131 18.3585C8.44555 17.577 8.07275 16.5641 8.10856 15.5255C8.14437 14.4869 8.58614 13.5005 9.34416 12.7665L9.37728 12.7344L13.7894 17.0163C14.3259 17.5377 14.706 18.191 14.8888 18.9062V18.9062Z" fill="#FC7D21"/>
<path d="M23.1223 9.27115C23.1227 9.80847 23.0139 10.3406 22.8019 10.8369C22.59 11.3333 22.2791 11.7842 21.8872 12.1638L15.3038 18.553C15.174 18.6807 15.0348 18.7992 14.8874 18.9074C14.7044 18.1925 14.3243 17.5394 13.7879 17.0182L9.375 12.7363L15.9261 6.37928C16.5158 5.80735 17.2669 5.41791 18.0846 5.26016C18.9023 5.10242 19.7498 5.18349 20.52 5.49306C21.2902 5.80263 21.9486 6.32682 22.4119 6.99943C22.8753 7.67203 23.1228 8.46283 23.1231 9.2719L23.1223 9.27115Z" fill="#FFA500"/>
<path d="M9.32434 9.70855L6.54728 6.72333C6.18191 6.33161 5.89962 5.87385 5.71658 5.37623C5.53355 4.87861 5.45333 4.35086 5.48051 3.82314C5.50768 3.29542 5.64172 2.77809 5.87496 2.30065C6.10821 1.82322 6.43608 1.39506 6.83987 1.04064C7.09875 0.81148 7.38721 0.615923 7.698 0.458887C8.0067 0.327002 8.32268 0.211763 8.64447 0.113679C8.77698 0.0822953 8.90948 0.0616147 9.03883 0.0424785C9.43446 -0.0141595 9.83652 -0.0141595 10.2322 0.0424785C10.3636 0.0600391 10.4937 0.0855859 10.6218 0.119005C11.4236 0.309656 12.1479 0.729675 12.7008 1.3246V1.3246C13.4372 2.11708 13.819 3.16097 13.7624 4.22666C13.7057 5.29234 13.2152 6.29255 12.3988 7.00729L9.32434 9.70855Z" fill="#ffffff"/>
<path d="M109 6.1564H106.302V3.5332H108.337C108.494 3.53315 108.646 3.59287 108.759 3.69966C108.872 3.80646 108.938 3.95189 108.942 4.105L109 6.1564Z" fill="#ffffff"/>
<path d="M109 23.3467H106.302V8.55664H108.927L109 23.3467Z" fill="#ffffff"/>
<path d="M90.6127 21.6693C87.9918 24.4073 79.0052 25.7522 76.6272 18.2707C76.8433 18.2638 79.6677 18.2615 79.6677 18.2615C79.6677 18.2615 80.0297 18.9006 80.4446 19.4862C80.8101 19.9806 81.2926 20.3825 81.8516 20.6581C83.6853 21.605 86.3922 21.6027 87.9357 20.5104C88.2616 20.294 88.5279 20.0035 88.7114 19.6642C88.8948 19.3248 88.9898 18.947 88.988 18.5638C88.9377 18.2046 88.784 17.8665 88.5446 17.5882C88.3052 17.31 87.9897 17.1029 87.6345 16.9908C86.3725 16.4604 84.9812 16.2484 83.6672 15.8274C82.2115 15.4756 80.8035 14.9589 79.472 14.288C78.8907 13.9471 78.4024 13.4754 78.0485 12.9128C77.6945 12.3501 77.4852 11.7131 77.4383 11.0555C77.3915 10.3979 77.5084 9.73892 77.7792 9.13435C78.0499 8.52978 78.4667 7.99733 78.9941 7.58196C82.8312 4.23006 89.9076 5.89796 91.3146 11.0173C90.309 11.0471 88.3175 10.9668 88.3175 10.9668C88.2085 10.5991 88.0444 10.2491 87.8301 9.92806C86.5745 8.2525 83.2106 7.95013 81.4154 9.13505C81.1129 9.31137 80.8562 9.55264 80.6647 9.84032C80.4733 10.128 80.3523 10.4545 80.3112 10.7946C80.3462 11.1585 80.4889 11.5049 80.722 11.792C80.9552 12.0791 81.2688 12.2946 81.6252 12.4127C83.1751 12.9983 84.8416 13.2715 86.4364 13.7614C87.6135 14.0678 88.7479 14.512 89.8145 15.0841C90.361 15.429 90.8226 15.8865 91.1664 16.424C91.5102 16.9615 91.7278 17.5659 91.8038 18.1942C91.8799 18.8225 91.8124 19.4594 91.6063 20.0596C91.4001 20.6598 91.0604 21.2086 90.6111 21.667L90.6127 21.6693Z" fill="#ffffff"/>
<path d="M70.6712 23.3467V20.7228C69.9245 21.6877 68.9581 22.4721 67.8474 23.0145C66.7367 23.5569 65.5118 23.8427 64.2684 23.8496C62.2033 23.8444 60.2207 23.0625 58.7373 21.6681C57.8802 20.8631 57.2 19.898 56.7377 18.831C56.2753 17.764 56.0403 16.6171 56.047 15.4595L56.0833 6.13867H58.7073V15.4595C58.7073 16.9989 59.3374 18.4751 60.4589 19.5636C61.5804 20.6521 63.1016 21.2636 64.6876 21.2636C66.2737 21.2636 67.7948 20.6521 68.9164 19.5636C70.0379 18.4751 70.668 16.9989 70.668 15.4595L70.705 6.13867H73.3283L73.3677 23.3467H70.6712Z" fill="#ffffff"/>
<path d="M53.4735 6.02017V8.53315C52.9012 8.29563 52.2815 8.18452 51.6595 8.20784C48.3571 8.20784 46.047 10.3159 46.047 14.0115L46.0107 23.33H43.3858L43.3503 6.12351H46.047V8.74596C47.0968 6.50166 48.9991 5.67188 51.5861 5.67188C52.2289 5.69274 52.8643 5.81079 53.4696 6.02171L53.4735 6.02017Z" fill="#ffffff"/>
<path d="M39.7017 8.6853V6.13943H35.1981C35.022 6.13943 34.8477 6.10578 34.685 6.04038C34.5223 5.97499 34.3745 5.87913 34.25 5.75829C34.1255 5.63746 34.0267 5.49401 33.9593 5.33614C33.8919 5.17826 33.8573 5.00904 33.8573 4.83816L33.8517 3.26367H31.2253V18.6086C31.2253 19.2302 31.3517 19.8456 31.5973 20.4196C31.8429 20.9937 32.2029 21.515 32.6565 21.9538C33.1102 22.3926 33.6486 22.7401 34.2409 22.9765C34.8332 23.2129 35.4678 23.3335 36.1083 23.3314L39.7032 23.3199V20.7733H36.6864C35.9509 20.7735 35.2453 20.4908 34.7242 19.987C34.203 19.4833 33.9089 18.7996 33.9062 18.0858L33.8722 8.70446L39.7017 8.6853Z" fill="#ffffff"/>
<path d="M102.807 8.68531V6.13943H98.3032C97.9476 6.13943 97.6065 6.00233 97.355 5.7583C97.1036 5.51426 96.9623 5.18328 96.9623 4.83816L96.9568 3.26367H94.3303V18.6086C94.3303 19.2301 94.4568 19.8454 94.7023 20.4194C94.9479 20.9933 95.3077 21.5146 95.7613 21.9533C96.2149 22.392 96.7533 22.7395 97.3455 22.9758C97.9377 23.2122 98.5722 23.3328 99.2125 23.3306L102.808 23.3192V20.7725H99.793C99.0574 20.7727 98.3517 20.49 97.8304 19.9863C97.3092 19.4826 97.0149 18.7989 97.012 18.085L96.9781 8.70371L102.807 8.68531Z" fill="#ffffff"/>
</svg>
