<svg width="63" height="32" viewBox="0 0 63 32" fill="none" xmlns="http://www.w3.org/2000/svg">
<path d="M13.2856 3.08012C14.4668 1.89894 16.3819 1.89894 17.563 3.08013V3.08013C18.7442 4.26131 18.7442 6.17638 17.563 7.35757L6.4163 18.5043C5.23511 19.6855 3.32004 19.6855 2.13886 18.5043V18.5043C0.957684 17.3231 0.957684 15.4081 2.13886 14.2269L13.2856 3.08012Z" fill="#FFA500"/>
<path d="M2.13871 18.6485C0.957534 17.4673 0.957536 15.5522 2.13872 14.371V14.371C3.3199 13.1899 5.23497 13.1899 6.41615 14.371L17.5629 25.5178C18.7441 26.699 18.7441 28.6141 17.5629 29.7952V29.7952C16.3817 30.9764 14.4666 30.9764 13.2855 29.7952L2.13871 18.6485Z" fill="#FFA500"/>
<path d="M2.13843 14.3722C3.31961 13.191 5.23557 13.191 6.41675 14.3722L8.48218 16.4386L6.41675 18.505C5.23558 19.6862 3.32059 19.6862 2.1394 18.505C1.56713 17.9327 1.27336 17.1885 1.25562 16.4386C1.27351 15.689 1.56638 14.9443 2.13843 14.3722Z" fill="#FC7D21"/>
<path d="M39.3077 5.09976C39.9434 3.55501 39.2065 1.7874 37.6617 1.15171V1.15171C36.117 0.51601 34.3494 1.25295 33.7137 2.7977L23.7945 26.9016C23.1588 28.4463 23.8957 30.214 25.4405 30.8496V30.8496C26.9852 31.4853 28.7528 30.7484 29.3885 29.2036L39.3077 5.09976Z" fill="#FFA500"/>
<path d="M49.6976 3.07817C48.5164 1.89699 46.6013 1.89699 45.4201 3.07817V3.07817C44.2389 4.25935 44.2389 6.17443 45.4201 7.35561L56.5669 18.5024C57.748 19.6835 59.6631 19.6835 60.8443 18.5024V18.5024C62.0255 17.3212 62.0255 15.4061 60.8443 14.2249L49.6976 3.07817Z" fill="#FFA500"/>
<path d="M60.8444 18.6465C62.0256 17.4653 62.0256 15.5503 60.8444 14.3691V14.3691C59.6633 13.1879 57.7482 13.1879 56.567 14.3691L45.4203 25.5158C44.2391 26.697 44.2391 28.6121 45.4203 29.7933V29.7933C46.6014 30.9745 48.5165 30.9745 49.6977 29.7933L60.8444 18.6465Z" fill="#FFA500"/>
<path d="M60.8445 14.3722C59.6633 13.191 57.7483 13.1911 56.5671 14.3722L54.5007 16.4386L56.5671 18.505C57.7483 19.6859 59.6634 19.6861 60.8445 18.505C61.4166 17.9328 61.7095 17.1883 61.7273 16.4386C61.7095 15.6888 61.4166 14.9443 60.8445 14.3722Z" fill="#FC7D21"/>
</svg>
